<mxfile host="app.diagrams.net" modified="2022-06-29T10:23:25.522Z" agent="5.0 (Macintosh; Intel Mac OS X 10_15_7) AppleWebKit/537.36 (KHTML, like Gecko) Chrome/101.0.0.0 Safari/537.36" etag="Y29zXOtZge-EnasZ1psA" version="19.0.3" type="github">
  <diagram id="8riaiRhdfPTf05YPtbaP" name="Page-1">
    <mxGraphModel dx="1426" dy="793" grid="1" gridSize="10" guides="1" tooltips="1" connect="1" arrows="1" fold="1" page="1" pageScale="1" pageWidth="827" pageHeight="1169" math="0" shadow="0">
      <root>
        <mxCell id="0" />
        <mxCell id="1" parent="0" />
        <mxCell id="GlGfbqZYw3Rh_CImmQlt-1" value="" style="rounded=0;whiteSpace=wrap;html=1;fillColor=#ffe6cc;strokeColor=#d79b00;" vertex="1" parent="1">
          <mxGeometry x="280" y="460" width="250" height="100" as="geometry" />
        </mxCell>
        <mxCell id="GlGfbqZYw3Rh_CImmQlt-2" value="域名/LB" style="rounded=0;whiteSpace=wrap;html=1;fillColor=#b1ddf0;strokeColor=#10739e;" vertex="1" parent="1">
          <mxGeometry x="890" y="480" width="120" height="60" as="geometry" />
        </mxCell>
        <mxCell id="GlGfbqZYw3Rh_CImmQlt-3" value="" style="rounded=0;whiteSpace=wrap;html=1;fillColor=#f8cecc;strokeColor=#b85450;" vertex="1" parent="1">
          <mxGeometry x="414" y="480" width="110" height="60" as="geometry" />
        </mxCell>
        <mxCell id="GlGfbqZYw3Rh_CImmQlt-4" value="server1" style="text;html=1;strokeColor=none;fillColor=none;align=center;verticalAlign=middle;whiteSpace=wrap;rounded=0;" vertex="1" parent="1">
          <mxGeometry x="480" y="460" width="44" height="20" as="geometry" />
        </mxCell>
        <mxCell id="GlGfbqZYw3Rh_CImmQlt-12" value="" style="rounded=0;whiteSpace=wrap;html=1;fillColor=#d5e8d4;strokeColor=#82b366;" vertex="1" parent="1">
          <mxGeometry x="600" y="360" width="250" height="100" as="geometry" />
        </mxCell>
        <mxCell id="GlGfbqZYw3Rh_CImmQlt-14" value="" style="rounded=0;whiteSpace=wrap;html=1;fillColor=#f8cecc;strokeColor=#b85450;" vertex="1" parent="1">
          <mxGeometry x="640" y="380" width="110" height="60" as="geometry" />
        </mxCell>
        <mxCell id="GlGfbqZYw3Rh_CImmQlt-5" value="server2" style="text;html=1;strokeColor=none;fillColor=none;align=center;verticalAlign=middle;whiteSpace=wrap;rounded=0;" vertex="1" parent="1">
          <mxGeometry x="806" y="360" width="44" height="20" as="geometry" />
        </mxCell>
        <mxCell id="GlGfbqZYw3Rh_CImmQlt-15" value="" style="rounded=0;whiteSpace=wrap;html=1;fillColor=#dae8fc;strokeColor=#6c8ebf;" vertex="1" parent="1">
          <mxGeometry x="600" y="560" width="250" height="100" as="geometry" />
        </mxCell>
        <mxCell id="GlGfbqZYw3Rh_CImmQlt-13" value="" style="rounded=0;whiteSpace=wrap;html=1;fillColor=#f8cecc;strokeColor=#b85450;" vertex="1" parent="1">
          <mxGeometry x="640" y="580" width="110" height="60" as="geometry" />
        </mxCell>
        <mxCell id="GlGfbqZYw3Rh_CImmQlt-6" value="server3" style="text;html=1;strokeColor=none;fillColor=none;align=center;verticalAlign=middle;whiteSpace=wrap;rounded=0;" vertex="1" parent="1">
          <mxGeometry x="806" y="560" width="44" height="20" as="geometry" />
        </mxCell>
        <mxCell id="GlGfbqZYw3Rh_CImmQlt-17" value="om-server&lt;br&gt;:8000" style="text;html=1;strokeColor=none;fillColor=none;align=center;verticalAlign=middle;whiteSpace=wrap;rounded=0;" vertex="1" parent="1">
          <mxGeometry x="439" y="495" width="60" height="30" as="geometry" />
        </mxCell>
        <mxCell id="GlGfbqZYw3Rh_CImmQlt-18" value="om-server&lt;br&gt;:8000" style="text;html=1;strokeColor=none;fillColor=none;align=center;verticalAlign=middle;whiteSpace=wrap;rounded=0;" vertex="1" parent="1">
          <mxGeometry x="660" y="395" width="60" height="30" as="geometry" />
        </mxCell>
        <mxCell id="GlGfbqZYw3Rh_CImmQlt-19" value="om-server&lt;br&gt;:8000" style="text;html=1;strokeColor=none;fillColor=none;align=center;verticalAlign=middle;whiteSpace=wrap;rounded=0;" vertex="1" parent="1">
          <mxGeometry x="665" y="595" width="60" height="30" as="geometry" />
        </mxCell>
        <mxCell id="GlGfbqZYw3Rh_CImmQlt-20" value="" style="endArrow=classic;html=1;rounded=0;exitX=1;exitY=0.5;exitDx=0;exitDy=0;entryX=0;entryY=0.5;entryDx=0;entryDy=0;" edge="1" parent="1" source="GlGfbqZYw3Rh_CImmQlt-3" target="GlGfbqZYw3Rh_CImmQlt-14">
          <mxGeometry width="50" height="50" relative="1" as="geometry">
            <mxPoint x="1070" y="330" as="sourcePoint" />
            <mxPoint x="1120" y="280" as="targetPoint" />
          </mxGeometry>
        </mxCell>
        <mxCell id="GlGfbqZYw3Rh_CImmQlt-23" value="rsync" style="edgeLabel;html=1;align=center;verticalAlign=middle;resizable=0;points=[];" vertex="1" connectable="0" parent="GlGfbqZYw3Rh_CImmQlt-20">
          <mxGeometry x="0.0525" y="3" relative="1" as="geometry">
            <mxPoint as="offset" />
          </mxGeometry>
        </mxCell>
        <mxCell id="GlGfbqZYw3Rh_CImmQlt-21" value="" style="endArrow=classic;html=1;rounded=0;exitX=1;exitY=0.5;exitDx=0;exitDy=0;entryX=0;entryY=0.5;entryDx=0;entryDy=0;" edge="1" parent="1" source="GlGfbqZYw3Rh_CImmQlt-3" target="GlGfbqZYw3Rh_CImmQlt-13">
          <mxGeometry width="50" height="50" relative="1" as="geometry">
            <mxPoint x="940" y="320" as="sourcePoint" />
            <mxPoint x="990" y="270" as="targetPoint" />
          </mxGeometry>
        </mxCell>
        <mxCell id="GlGfbqZYw3Rh_CImmQlt-22" value="rsync" style="edgeLabel;html=1;align=center;verticalAlign=middle;resizable=0;points=[];" vertex="1" connectable="0" parent="GlGfbqZYw3Rh_CImmQlt-21">
          <mxGeometry x="-0.0553" relative="1" as="geometry">
            <mxPoint as="offset" />
          </mxGeometry>
        </mxCell>
        <mxCell id="GlGfbqZYw3Rh_CImmQlt-30" value="" style="rounded=0;whiteSpace=wrap;html=1;fillColor=#e1d5e7;strokeColor=#9673a6;" vertex="1" parent="1">
          <mxGeometry x="280" y="495" width="80" height="30" as="geometry" />
        </mxCell>
        <mxCell id="GlGfbqZYw3Rh_CImmQlt-31" value="docker" style="text;html=1;strokeColor=none;fillColor=none;align=center;verticalAlign=middle;whiteSpace=wrap;rounded=0;" vertex="1" parent="1">
          <mxGeometry x="291" y="500" width="50" height="20" as="geometry" />
        </mxCell>
        <mxCell id="GlGfbqZYw3Rh_CImmQlt-32" value="" style="endArrow=classic;html=1;rounded=0;entryX=1;entryY=0.617;entryDx=0;entryDy=0;entryPerimeter=0;exitX=0;exitY=0.5;exitDx=0;exitDy=0;" edge="1" parent="1" source="GlGfbqZYw3Rh_CImmQlt-2" target="GlGfbqZYw3Rh_CImmQlt-14">
          <mxGeometry width="50" height="50" relative="1" as="geometry">
            <mxPoint x="1040" y="240" as="sourcePoint" />
            <mxPoint x="1090" y="190" as="targetPoint" />
          </mxGeometry>
        </mxCell>
        <mxCell id="GlGfbqZYw3Rh_CImmQlt-33" value="" style="endArrow=classic;html=1;rounded=0;entryX=1;entryY=0.5;entryDx=0;entryDy=0;exitX=0;exitY=0.5;exitDx=0;exitDy=0;" edge="1" parent="1" source="GlGfbqZYw3Rh_CImmQlt-2" target="GlGfbqZYw3Rh_CImmQlt-13">
          <mxGeometry width="50" height="50" relative="1" as="geometry">
            <mxPoint x="1000" y="480" as="sourcePoint" />
            <mxPoint x="1170" y="610" as="targetPoint" />
          </mxGeometry>
        </mxCell>
        <UserObject label="%date{ddd mmm dd yyyy HH:MM:ss}% by glong" placeholders="1" id="GlGfbqZYw3Rh_CImmQlt-35">
          <mxCell style="text;html=1;strokeColor=none;fillColor=none;align=center;verticalAlign=middle;whiteSpace=wrap;overflow=hidden;" vertex="1" parent="1">
            <mxGeometry x="600" y="710" width="239" height="20" as="geometry" />
          </mxCell>
        </UserObject>
        <mxCell id="GlGfbqZYw3Rh_CImmQlt-36" value="" style="html=1;shadow=0;dashed=0;align=center;verticalAlign=middle;shape=mxgraph.arrows2.jumpInArrow;dy=15;dx=38;arrowHead=55;direction=west;fillColor=#fff2cc;strokeColor=#d6b656;gradientColor=#ffd966;" vertex="1" parent="1">
          <mxGeometry x="1030" y="450" width="140" height="90" as="geometry" />
        </mxCell>
        <mxCell id="GlGfbqZYw3Rh_CImmQlt-37" value="访问" style="text;html=1;strokeColor=none;fillColor=none;align=center;verticalAlign=middle;whiteSpace=wrap;rounded=0;" vertex="1" parent="1">
          <mxGeometry x="1070" y="495" width="60" height="30" as="geometry" />
        </mxCell>
        <mxCell id="GlGfbqZYw3Rh_CImmQlt-24" value="" style="rounded=0;whiteSpace=wrap;html=1;fillColor=#eeeeee;strokeColor=#36393d;" vertex="1" parent="1">
          <mxGeometry x="290" y="470" width="80" height="30" as="geometry" />
        </mxCell>
        <mxCell id="GlGfbqZYw3Rh_CImmQlt-26" value="" style="rounded=0;whiteSpace=wrap;html=1;fillColor=#cdeb8b;strokeColor=#36393d;" vertex="1" parent="1">
          <mxGeometry x="290" y="515" width="80" height="30" as="geometry" />
        </mxCell>
        <mxCell id="GlGfbqZYw3Rh_CImmQlt-27" value="dashboard-ui&lt;br&gt;8002" style="text;html=1;strokeColor=none;fillColor=none;align=center;verticalAlign=middle;whiteSpace=wrap;rounded=0;" vertex="1" parent="1">
          <mxGeometry x="290" y="530" width="80" height="10" as="geometry" />
        </mxCell>
        <mxCell id="GlGfbqZYw3Rh_CImmQlt-28" value="dashboard-server&lt;br&gt;8001" style="text;html=1;strokeColor=none;fillColor=none;align=center;verticalAlign=middle;whiteSpace=wrap;rounded=0;" vertex="1" parent="1">
          <mxGeometry x="290" y="480" width="101" height="10" as="geometry" />
        </mxCell>
        <mxCell id="GlGfbqZYw3Rh_CImmQlt-40" value="" style="rounded=0;whiteSpace=wrap;html=1;fillColor=#f5f5f5;strokeColor=#666666;gradientColor=#b3b3b3;" vertex="1" parent="1">
          <mxGeometry x="350" y="495" width="50" height="30" as="geometry" />
        </mxCell>
        <mxCell id="GlGfbqZYw3Rh_CImmQlt-43" value="logstash" style="text;html=1;strokeColor=none;fillColor=none;align=center;verticalAlign=middle;whiteSpace=wrap;rounded=0;" vertex="1" parent="1">
          <mxGeometry x="345" y="495" width="60" height="30" as="geometry" />
        </mxCell>
      </root>
    </mxGraphModel>
  </diagram>
</mxfile>
